
<!-- Generator: visioncortex VTracer 0.6.4 -->
<svg version="1.1" xmlns="http://www.w3.org/2000/svg" viewBox="0 0 365 93" preserveAspectRatio="xMidYMid meet">
<path d="M0 0 C120.45 0 240.9 0 365 0 C365 30.69 365 61.38 365 93 C244.55 93 124.1 93 0 93 C0 62.31 0 31.62 0 0 Z " fill="#FCFCFC" transform="translate(0,0)"/>
<path d="M0 0 C18.106 -0.023 36.212 -0.041 54.318 -0.052 C62.725 -0.057 71.131 -0.064 79.537 -0.075 C86.862 -0.085 94.186 -0.092 101.51 -0.094 C105.391 -0.095 109.271 -0.098 113.152 -0.106 C116.8 -0.112 120.449 -0.115 124.097 -0.113 C126.083 -0.114 128.069 -0.119 130.054 -0.124 C131.225 -0.123 132.396 -0.122 133.603 -0.12 C134.627 -0.121 135.651 -0.122 136.706 -0.123 C139 0 139 0 140 1 C140.098 2.664 140.13 4.333 140.125 6 C140.128 6.907 140.13 7.815 140.133 8.75 C140 11 140 11 139 12 C137.218 12.099 135.432 12.126 133.647 12.127 C131.906 12.131 131.906 12.131 130.129 12.136 C128.201 12.132 128.201 12.132 126.234 12.129 C124.876 12.131 123.518 12.133 122.16 12.135 C118.462 12.139 114.764 12.137 111.065 12.134 C107.203 12.132 103.341 12.134 99.479 12.136 C92.993 12.138 86.506 12.135 80.02 12.13 C72.51 12.125 64.999 12.127 57.489 12.132 C51.053 12.137 44.616 12.137 38.18 12.135 C34.331 12.133 30.481 12.133 26.632 12.136 C23.014 12.139 19.396 12.137 15.778 12.131 C13.809 12.129 11.84 12.132 9.871 12.136 C8.71 12.133 7.549 12.13 6.353 12.127 C5.337 12.127 4.322 12.126 3.275 12.126 C1 12 1 12 0 11 C-0.072 9.147 -0.084 7.292 -0.062 5.438 C-0.053 4.426 -0.044 3.414 -0.035 2.371 C-0.024 1.589 -0.012 0.806 0 0 Z " fill="#020102" transform="translate(28,25)"/>
<path d="M0 0 C35.97 0 71.94 0 109 0 C109 3.96 109 7.92 109 12 C107.455 13.545 106.021 13.126 103.869 13.127 C102.533 13.131 102.533 13.131 101.171 13.136 C99.694 13.132 99.694 13.132 98.188 13.129 C97.157 13.131 96.126 13.133 95.064 13.135 C91.638 13.139 88.211 13.136 84.785 13.133 C82.415 13.133 80.045 13.134 77.674 13.136 C72.698 13.137 67.722 13.135 62.746 13.13 C56.356 13.125 49.965 13.128 43.575 13.134 C38.677 13.138 33.78 13.136 28.882 13.134 C26.525 13.133 24.168 13.134 21.812 13.136 C18.522 13.139 15.232 13.135 11.942 13.129 C10.959 13.131 9.977 13.133 8.965 13.136 C8.071 13.133 7.178 13.13 6.258 13.127 C5.479 13.127 4.701 13.126 3.899 13.126 C2 13 2 13 0 12 C0 8.04 0 4.08 0 0 Z " fill="#FA0201" transform="translate(58,44)"/>
<path d="M0 0 C46.2 0 92.4 0 140 0 C140 1.98 140 3.96 140 6 C93.8 6 47.6 6 0 6 C0 4.02 0 2.04 0 0 Z " fill="#090909" transform="translate(28,67)"/>
<path d="M0 0 C16 0 16 0 21 3 C22.585 6.17 22.424 9.547 22 13 C20.5 15 20.5 15 19 16 C19.99 16.66 20.98 17.32 22 18 C22.65 21.034 22.5 23.947 22 27 C19.802 30.032 18.55 30.817 15 32 C10.05 32 5.1 32 0 32 C0 21.44 0 10.88 0 0 Z " fill="#090909" transform="translate(181,35)"/>
<path d="M0 0 C6 0 6 0 7.723 1.688 C8.165 2.451 8.607 3.214 9.062 4 C9.551 4.813 10.04 5.627 10.543 6.465 C11.024 7.301 11.505 8.138 12 9 C12.953 10.524 13.911 12.045 14.875 13.562 C15.576 14.697 16.277 15.831 17 17 C17.33 11.39 17.66 5.78 18 0 C19.98 0 21.96 0 24 0 C24 10.56 24 21.12 24 32 C22.02 32 20.04 32 18 32 C16.704 29.773 15.413 27.544 14.125 25.312 C13.76 24.687 13.395 24.061 13.02 23.416 C11.063 20.018 9.344 16.699 8 13 C7.34 13 6.68 13 6 13 C6 19.27 6 25.54 6 32 C4.02 32 2.04 32 0 32 C0 21.44 0 10.88 0 0 Z " fill="#101010" transform="translate(281,35)"/>
<path d="M0 0 C44.22 0 88.44 0 134 0 C134.33 1.32 134.66 2.64 135 4 C97.71 4 60.42 4 22 4 C22 3.01 22 2.02 22 1 C14.74 1 7.48 1 0 1 C0 0.67 0 0.34 0 0 Z " fill="#FAF6F5" transform="translate(32,40)"/>
<path d="M0 0 C46.2 0 92.4 0 140 0 C140 0.99 140 1.98 140 3 C93.8 3 47.6 3 0 3 C0 2.01 0 1.02 0 0 Z " fill="#B4B4B4" transform="translate(28,73)"/>
<path d="M0 0 C46.2 0 92.4 0 140 0 C139.67 1.32 139.34 2.64 139 4 C93.46 4 47.92 4 1 4 C0.67 2.68 0.34 1.36 0 0 Z " fill="#C3C6C6" transform="translate(28,36)"/>
<path d="M0 0 C6.93 0 13.86 0 21 0 C21 1.65 21 3.3 21 5 C16.05 5 11.1 5 6 5 C6 7.64 6 10.28 6 13 C9.3 13 12.6 13 16 13 C16 14.65 16 16.3 16 18 C12.7 18 9.4 18 6 18 C6 20.97 6 23.94 6 27 C10.95 27 15.9 27 21 27 C21 28.65 21 30.3 21 32 C14.07 32 7.14 32 0 32 C0 21.44 0 10.88 0 0 Z " fill="#030303" transform="translate(313,35)"/>
<path d="M0 0 C35.97 0 71.94 0 109 0 C109 3.96 109 7.92 109 12 C107.455 13.545 106.021 13.126 103.869 13.127 C102.533 13.131 102.533 13.131 101.171 13.136 C99.694 13.132 99.694 13.132 98.188 13.129 C97.157 13.131 96.126 13.133 95.064 13.135 C91.638 13.139 88.211 13.136 84.785 13.133 C82.415 13.133 80.045 13.134 77.674 13.136 C72.698 13.137 67.722 13.135 62.746 13.13 C56.356 13.125 49.965 13.128 43.575 13.134 C38.677 13.138 33.78 13.136 28.882 13.134 C26.525 13.133 24.168 13.134 21.812 13.136 C18.522 13.139 15.232 13.135 11.942 13.129 C10.959 13.131 9.977 13.133 8.965 13.136 C8.071 13.133 7.178 13.13 6.258 13.127 C5.479 13.127 4.701 13.126 3.899 13.126 C2 13 2 13 0 12 C0 8.04 0 4.08 0 0 Z M1 1 C1 4.3 1 7.6 1 11 C35.98 11 70.96 11 107 11 C107 10.01 107 9.02 107 8 C106.01 7.67 105.02 7.34 104 7 C104.99 6.67 105.98 6.34 107 6 C106.505 3.525 106.505 3.525 106 1 C71.35 1 36.7 1 1 1 Z " fill="#E32F2C" transform="translate(58,44)"/>
<path d="M0 0 C0.33 0 0.66 0 1 0 C1 3.63 1 7.26 1 11 C36.64 11 72.28 11 109 11 C109.33 7.37 109.66 3.74 110 0 C110.33 0 110.66 0 111 0 C111.027 2.312 111.046 4.625 111.062 6.938 C111.074 8.225 111.086 9.513 111.098 10.84 C111 14 111 14 110 15 C108.601 15.1 107.196 15.131 105.793 15.134 C104.432 15.14 104.432 15.14 103.044 15.147 C101.539 15.146 101.539 15.146 100.004 15.145 C98.429 15.15 98.429 15.15 96.821 15.155 C93.33 15.165 89.839 15.167 86.348 15.168 C83.932 15.171 81.517 15.175 79.102 15.178 C74.032 15.184 68.962 15.186 63.892 15.185 C57.38 15.185 50.869 15.199 44.357 15.216 C39.367 15.227 34.377 15.229 29.386 15.229 C26.985 15.23 24.584 15.234 22.182 15.242 C18.83 15.252 15.478 15.249 12.125 15.243 C10.624 15.251 10.624 15.251 9.092 15.26 C7.727 15.254 7.727 15.254 6.334 15.247 C5.144 15.248 5.144 15.248 3.93 15.249 C2 15 2 15 0 13 C-0.195 9.961 -0.195 9.961 -0.125 6.375 C-0.107 5.186 -0.089 3.998 -0.07 2.773 C-0.047 1.858 -0.024 0.943 0 0 Z " fill="#DDB3B2" transform="translate(57,45)"/>
<path d="M0 0 C2.31 0 4.62 0 7 0 C7.674 1.434 8.339 2.873 9 4.312 C9.557 5.513 9.557 5.513 10.125 6.738 C11 9 11 9 11 12 C11.66 12 12.32 12 13 12 C13.268 11.134 13.536 10.267 13.812 9.375 C14.971 6.082 16.382 3.089 18 0 C19.98 0 21.96 0 24 0 C23.404 4.437 21.674 7.616 19.5 11.5 C15.897 18.238 14.911 24.319 15 32 C13.02 32 11.04 32 9 32 C9.021 31.175 9.041 30.35 9.062 29.5 C8.891 19.878 6.309 13.512 1.715 5.203 C0 2 0 2 0 0 Z " fill="#0E0E0E" transform="translate(208,35)"/>
<path d="M0 0 C1.98 0 3.96 0 6 0 C6 8.91 6 17.82 6 27 C10.95 27 15.9 27 21 27 C21 28.65 21 30.3 21 32 C14.07 32 7.14 32 0 32 C0 21.44 0 10.88 0 0 Z " fill="#090909" transform="translate(239,35)"/>
<path d="M0 0 C1.98 0 3.96 0 6 0 C6 10.56 6 21.12 6 32 C4.02 32 2.04 32 0 32 C0 21.44 0 10.88 0 0 Z " fill="#0C0C0C" transform="translate(267,35)"/>
<path d="M0 0 C0.33 0 0.66 0 1 0 C1.027 1.646 1.046 3.292 1.062 4.938 C1.074 5.854 1.086 6.771 1.098 7.715 C1 10 1 10 0 11 C-1.784 11.096 -3.572 11.122 -5.359 11.12 C-6.522 11.122 -7.684 11.123 -8.882 11.124 C-10.169 11.121 -11.456 11.117 -12.781 11.114 C-14.141 11.113 -15.501 11.113 -16.861 11.114 C-20.563 11.114 -24.265 11.108 -27.968 11.101 C-31.833 11.095 -35.698 11.095 -39.563 11.093 C-46.887 11.09 -54.211 11.082 -61.535 11.072 C-69.871 11.061 -78.207 11.055 -86.543 11.05 C-103.695 11.04 -120.848 11.022 -138 11 C-138 10.67 -138 10.34 -138 10 C-136.979 9.995 -136.979 9.995 -135.937 9.99 C-119.37 9.909 -102.803 9.817 -86.236 9.712 C-78.224 9.662 -70.213 9.616 -62.201 9.578 C-55.218 9.545 -48.235 9.505 -41.252 9.457 C-37.554 9.432 -33.857 9.41 -30.16 9.397 C-26.032 9.381 -21.904 9.351 -17.777 9.319 C-16.551 9.317 -15.325 9.315 -14.062 9.312 C-12.936 9.301 -11.811 9.29 -10.65 9.278 C-9.674 9.273 -8.698 9.267 -7.692 9.262 C-4.808 8.981 -2.624 8.201 0 7 C0 4.69 0 2.38 0 0 Z " fill="#1C1C1E" transform="translate(167,26)"/>
<path d="M0 0 C6.055 -0.195 6.055 -0.195 8 0 C10 2 10 2 10.25 4.5 C10 7 10 7 8 9 C5.312 9.27 2.709 9.087 0 9 C0 6.03 0 3.06 0 0 Z " fill="#E1E1E1" transform="translate(187,53)"/>
<path d="M0 0 C6.625 -0.25 6.625 -0.25 10 2 C10.188 4.625 10.188 4.625 10 7 C6.785 8.607 3.564 8.057 0 8 C0 5.36 0 2.72 0 0 Z " fill="#E8E8E8" transform="translate(187,40)"/>
<path d="M0 0 C1.98 0 3.96 0 6 0 C5.25 4.75 5.25 4.75 3 7 C2.01 6.34 1.02 5.68 0 5 C-0.99 5.495 -0.99 5.495 -2 6 C-1.34 4.02 -0.68 2.04 0 0 Z " fill="#171717" transform="translate(226,35)"/>
<path d="M0 0 C0.33 0 0.66 0 1 0 C1 3.3 1 6.6 1 10 C-0.98 10 -2.96 10 -5 10 C-3.625 8.5 -3.625 8.5 -2 7 C-1.34 7 -0.68 7 0 7 C0 4.69 0 2.38 0 0 Z " fill="#393234" transform="translate(167,26)"/>
<path d="M0 0 C1.65 0 3.3 0 5 0 C5 1.32 5 2.64 5 4 C3.68 4 2.36 4 1 4 C0.67 2.68 0.34 1.36 0 0 Z " fill="#F1FCFB" transform="translate(53,40)"/>
</svg>