<?xml version="1.0" encoding="UTF-8"?>
<svg id="Layer_1" data-name="Layer 1" xmlns="http://www.w3.org/2000/svg" viewBox="0 0 61.45 23.52">
  <defs>
    <style>
      .cls-1 {
        fill: #231f20;
      }

      .cls-2 {
        fill: #ec1c24;
      }
    </style>
  </defs>
  <polygon class="cls-1" points="23.21 15.23 22.14 17.83 6.46 17.83 7.49 15.23 23.21 15.23"/>
  <polygon class="cls-1" points="5.08 22.03 4.52 23.52 19.79 23.52 20.41 22.03 5.08 22.03"/>
  <polygon class="cls-1" points="6.35 .79 1.97 .89 1.98 3.33 6.4 3.21 6.35 .79"/>
  <g>
    <path class="cls-1" d="M15.4,4.23c.58-.29,1.22-.44,1.93-.44.83,0,1.59.2,2.26.6.67.4,1.2.97,1.59,1.7.39.74.58,1.58.58,2.53s-.19,1.8-.58,2.54c-.39.75-.92,1.33-1.6,1.75-.68.42-1.43.63-2.25.63-.73,0-1.38-.14-1.94-.43-.56-.29-1.01-.65-1.34-1.1v1.37h-1.95V.71h1.95v4.64c.33-.46.78-.83,1.36-1.12ZM19.37,6.93c-.27-.47-.62-.83-1.06-1.08-.44-.25-.91-.37-1.41-.37s-.96.13-1.4.38c-.44.25-.79.62-1.06,1.1-.27.48-.4,1.04-.4,1.7s.13,1.22.4,1.7.62.85,1.06,1.1c.44.25.9.38,1.4.38s.97-.13,1.41-.39c.44-.26.79-.63,1.06-1.12.27-.49.4-1.06.4-1.71s-.13-1.21-.4-1.69Z"/>
    <path class="cls-1" d="M31.18,3.95l-5.79,13.87h-2.02l1.92-4.59-3.72-9.28h2.17l2.65,7.19,2.76-7.19h2.02Z"/>
    <path class="cls-1" d="M34.6.71v12.67h-1.95V.71h1.95Z"/>
    <path class="cls-1" d="M39.12,3.95v9.43h-1.95V3.95h1.95Z"/>
    <path class="cls-1" d="M48.45,4.25c.59.31,1.05.76,1.38,1.37.33.61.5,1.34.5,2.19v5.56h-1.93v-5.27c0-.84-.21-1.49-.63-1.94-.42-.45-1-.68-1.73-.68s-1.31.23-1.74.68c-.43.45-.64,1.1-.64,1.94v5.27h-1.95V3.95h1.95v1.08c.32-.39.73-.69,1.22-.91.5-.22,1.02-.32,1.58-.32.74,0,1.41.15,1.99.46Z"/>
    <path class="cls-1" d="M61.38,9.39h-7.21c.06.75.34,1.36.84,1.82.5.46,1.12.68,1.85.68,1.05,0,1.79-.44,2.23-1.32h2.11c-.29.87-.8,1.58-1.55,2.13-.75.55-1.68.83-2.78.83-.9,0-1.71-.2-2.42-.61-.71-.41-1.27-.98-1.68-1.71s-.61-1.59-.61-2.56.2-1.82.59-2.56c.39-.74.95-1.3,1.66-1.7.71-.4,1.53-.6,2.46-.6s1.68.19,2.38.58c.7.39,1.24.93,1.63,1.64.39.7.58,1.51.58,2.42,0,.35-.02.67-.07.96ZM59.41,7.82c-.01-.72-.27-1.3-.77-1.73-.5-.43-1.12-.65-1.87-.65-.67,0-1.25.21-1.73.64s-.76,1.01-.86,1.74h5.22Z"/>
  </g>
  <path class="cls-2" d="M36.71,1.42c0,.78.63,1.42,1.42,1.42s1.42-.63,1.42-1.42-.63-1.42-1.42-1.42-1.42.63-1.42,1.42"/>
  <path class="cls-1" d="M4.75,10.83c-.12.13-.32.13-.45.01-.13-.12-.13-.32-.01-.45.12-.13.32-.13.45-.01.13.12.13.32.01.45M4.65,11.07c.17-.1.33-.25.33-.46-.02-.49-.65-.64-.88-.18-.11.23.05.58.3.64l.22,8.09c0,.11.13.07.2.06l-.17-8.14Z"/>
  <path class="cls-1" d="M4.41,20.21c.19.18.5.17.68-.02.18-.19.17-.5-.02-.68s-.5-.17-.68.02c-.18.19-.17.5.02.68"/>
  <path class="cls-2" d="M5.48,18.63c-.05.12-.1.24-.15.35.1.1.24.23.29.3.43.62-.02,1.54-.75,1.64-1.05.14-1.62-1.19-.84-1.88l-.09-.2c-.36.23-.61.62-.61,1.09,0,.72.58,1.3,1.3,1.3h16.04l1.13-2.6H5.48Z"/>
  <path class="cls-1" d="M4.74,20.8c-.36,0-.67-.21-.82-.55-.16-.37-.09-.78.19-1.05h0s-.37-.81-.37-.81C2.62,15.97,1.46,13.46.02,11.15c-.02-.03-.03-.08-.01-.12.72-1.93,1.2-3.51,1.52-4.99.06-.28.11-.56.16-.84.08-.47.17-.95.3-1.42.02-.06.07-.1.13-.1l4.29-.08s.06,0,.08.03c.03.02.06.06.07.09.44,2.32,1.17,4.74,2.24,7.4.01.04.01.08,0,.11-1.08,1.99-1.95,4.11-2.8,6.16-.24.58-.48,1.15-.72,1.72.03.03.07.07.09.09.06.06.12.12.15.16.17.25.2.57.07.86-.13.3-.41.52-.72.56-.04,0-.09,0-.13,0ZM.28,11.07c1.43,2.3,2.58,4.8,3.7,7.22l.38.82s.01.03.01.04v.1s0,.09-.04.11c-.28.24-.27.57-.17.78.1.22.32.43.67.38.22-.03.41-.19.51-.41.09-.21.07-.43-.04-.6-.02-.03-.07-.07-.11-.12-.13-.13-.2-.2-.19-.29,0-.01,0-.02,0-.03.25-.59.5-1.19.74-1.79.84-2.04,1.71-4.15,2.78-6.13-1.05-2.61-1.78-5-2.22-7.29l-4.1.07c-.11.43-.19.87-.27,1.3-.05.28-.1.57-.16.85h0c-.32,1.47-.79,3.05-1.51,4.96Z"/>
</svg>